<svg width="100%" viewBox="0 0 680 780" xmlns="http://www.w3.org/2000/svg">
<defs>
<marker id="arrow" viewBox="0 0 10 10" refX="8" refY="5" markerWidth="6" markerHeight="6" orient="auto-start-reverse">
<path d="M2 1L8 5L2 9" fill="none" stroke="context-stroke" stroke-width="1.5" stroke-linecap="round" stroke-linejoin="round"/>
</marker>
<style>
  text { font-family: Arial, sans-serif; }
  .th { font-size: 14px; font-weight: 500; fill: #2C2C2A; }
  .ts { font-size: 12px; fill: #5F5E5A; }
  .node { cursor: pointer; }
  .arr { stroke: #888780; stroke-width: 1.5; fill: none; }
  .leader { stroke: #888780; stroke-width: 0.5; stroke-dasharray: 3 2; fill: none; }

  .c-gray rect, .c-gray ellipse, .c-gray circle { fill: #F1EFE8; stroke: #5F5E5A; }
  .c-gray .th { fill: #444441; }
  .c-gray .ts { fill: #5F5E5A; }

  .c-purple rect, .c-purple ellipse, .c-purple circle { fill: #EEEDFE; stroke: #534AB7; }
  .c-purple .th { fill: #3C3489; }
  .c-purple .ts { fill: #534AB7; }

  .c-teal rect, .c-teal ellipse, .c-teal circle { fill: #E1F5EE; stroke: #0F6E56; }
  .c-teal .th { fill: #085041; }
  .c-teal .ts { fill: #0F6E56; }

  .c-coral rect, .c-coral ellipse, .c-coral circle { fill: #FAECE7; stroke: #993C1D; }
  .c-coral .th { fill: #712B13; }
  .c-coral .ts { fill: #993C1D; }

  .c-blue rect, .c-blue ellipse, .c-blue circle { fill: #E6F1FB; stroke: #185FA5; }
  .c-blue .th { fill: #0C447C; }
  .c-blue .ts { fill: #185FA5; }
</style>
</defs>

<!-- main.py — composition root -->
<g class="c-gray">
  <rect x="240" y="20" width="200" height="52" rx="8" stroke-width="0.5"/>
  <text class="th" x="340" y="40" text-anchor="middle" dominant-baseline="central">main.py</text>
  <text class="ts" x="340" y="58" text-anchor="middle" dominant-baseline="central">Composition root</text>
</g>

<!-- Arrows from main to each layer -->
<line x1="260" y1="72" x2="140" y2="148" class="arr" marker-end="url(#arrow)" stroke="#888780"/>
<line x1="300" y1="72" x2="300" y2="148" class="arr" marker-end="url(#arrow)" stroke="#888780"/>
<line x1="370" y1="72" x2="490" y2="148" class="arr" marker-end="url(#arrow)" stroke="#888780"/>
<line x1="340" y1="72" x2="340" y2="148" class="arr" marker-end="url(#arrow)" stroke="#888780"/>

<!-- cli package -->
<g class="c-gray">
  <rect x="30" y="148" width="200" height="108" rx="10" stroke-width="0.5" stroke-dasharray="4 3"/>
  <text class="th" x="130" y="168" text-anchor="middle" dominant-baseline="central">cli/</text>
</g>
<g class="c-gray">
  <rect x="46" y="182" width="78" height="44" rx="6" stroke-width="0.5"/>
  <text class="th" x="85" y="200" text-anchor="middle" dominant-baseline="central">args.py</text>
  <text class="ts" x="85" y="216" text-anchor="middle" dominant-baseline="central">CliArgs</text>
</g>
<g class="c-gray">
  <rect x="138" y="182" width="82" height="44" rx="6" stroke-width="0.5"/>
  <text class="th" x="179" y="200" text-anchor="middle" dominant-baseline="central">prompts.py</text>
  <text class="ts" x="179" y="216" text-anchor="middle" dominant-baseline="central">Interactive input</text>
</g>

<!-- core package -->
<g class="c-purple">
  <rect x="200" y="148" width="280" height="108" rx="10" stroke-width="0.5" stroke-dasharray="4 3"/>
  <text class="th" x="340" y="168" text-anchor="middle" dominant-baseline="central">core/</text>
</g>
<g class="c-purple">
  <rect x="214" y="182" width="78" height="44" rx="6" stroke-width="0.5"/>
  <text class="th" x="253" y="200" text-anchor="middle" dominant-baseline="central">config.py</text>
  <text class="ts" x="253" y="216" text-anchor="middle" dominant-baseline="central">Singleton</text>
</g>
<g class="c-purple">
  <rect x="300" y="182" width="92" height="44" rx="6" stroke-width="0.5"/>
  <text class="th" x="346" y="200" text-anchor="middle" dominant-baseline="central">logging_setup</text>
  <text class="ts" x="346" y="216" text-anchor="middle" dominant-baseline="central">@traced, TRACE</text>
</g>
<g class="c-purple">
  <rect x="400" y="182" width="68" height="44" rx="6" stroke-width="0.5"/>
  <text class="th" x="434" y="200" text-anchor="middle" dominant-baseline="central">utils.py</text>
  <text class="ts" x="434" y="216" text-anchor="middle" dominant-baseline="central">Time helpers</text>
</g>

<!-- schwab package -->
<g class="c-teal">
  <rect x="450" y="148" width="210" height="108" rx="10" stroke-width="0.5" stroke-dasharray="4 3"/>
  <text class="th" x="555" y="168" text-anchor="middle" dominant-baseline="central">schwab/</text>
</g>
<g class="c-teal">
  <rect x="462" y="182" width="60" height="44" rx="6" stroke-width="0.5"/>
  <text class="th" x="492" y="200" text-anchor="middle" dominant-baseline="central">auth.py</text>
  <text class="ts" x="492" y="216" text-anchor="middle" dominant-baseline="central">Template Method</text>
</g>
<g class="c-teal">
  <rect x="530" y="182" width="62" height="44" rx="6" stroke-width="0.5"/>
  <text class="th" x="561" y="200" text-anchor="middle" dominant-baseline="central">token_store</text>
  <text class="ts" x="561" y="216" text-anchor="middle" dominant-baseline="central">Strategy</text>
</g>
<g class="c-teal">
  <rect x="600" y="182" width="52" height="44" rx="6" stroke-width="0.5"/>
  <text class="th" x="626" y="200" text-anchor="middle" dominant-baseline="central">market</text>
  <text class="ts" x="626" y="216" text-anchor="middle" dominant-baseline="central">Facade</text>
</g>

<!-- core → db dependency dashed -->
<path d="M340 256 L340 310" fill="none" stroke="#534AB7" stroke-width="0.5" stroke-dasharray="3 2"/>

<!-- db package -->
<g class="c-coral">
  <rect x="100" y="310" width="480" height="116" rx="10" stroke-width="0.5" stroke-dasharray="4 3"/>
  <text class="th" x="340" y="332" text-anchor="middle" dominant-baseline="central">db/</text>
</g>
<g class="c-coral">
  <rect x="116" y="348" width="130" height="52" rx="6" stroke-width="0.5"/>
  <text class="th" x="181" y="366" text-anchor="middle" dominant-baseline="central">connection.py</text>
  <text class="ts" x="181" y="382" text-anchor="middle" dominant-baseline="central">Factory + Context Mgr</text>
</g>
<g class="c-coral">
  <rect x="262" y="348" width="136" height="52" rx="6" stroke-width="0.5"/>
  <text class="th" x="330" y="366" text-anchor="middle" dominant-baseline="central">portfolio_repo</text>
  <text class="ts" x="330" y="382" text-anchor="middle" dominant-baseline="central">Repository</text>
</g>
<g class="c-coral">
  <rect x="414" y="348" width="150" height="52" rx="6" stroke-width="0.5"/>
  <text class="th" x="489" y="366" text-anchor="middle" dominant-baseline="central">quote_repo</text>
  <text class="ts" x="489" y="382" text-anchor="middle" dominant-baseline="central">Repository + Unit of Work</text>
</g>

<!-- repos → connection arrows -->
<line x1="262" y1="374" x2="246" y2="374" class="arr" marker-end="url(#arrow)" stroke="#993C1D"/>
<line x1="414" y1="374" x2="396" y2="374" class="arr" marker-end="url(#arrow)" stroke="#993C1D"/>

<!-- main → db -->
<path d="M300 72 L90 72 L90 310" fill="none" stroke="#888780" stroke-width="1.5" marker-end="url(#arrow)"/>

<!-- External: Schwab API -->
<g class="c-blue">
  <rect x="450" y="500" width="190" height="52" rx="8" stroke-width="0.5"/>
  <text class="th" x="545" y="518" text-anchor="middle" dominant-baseline="central">Schwab Market Data API</text>
  <text class="ts" x="545" y="534" text-anchor="middle" dominant-baseline="central">REST / OAuth 2.0</text>
</g>
<!-- External: SQL Server -->
<g class="c-blue">
  <rect x="40" y="500" width="190" height="52" rx="8" stroke-width="0.5"/>
  <text class="th" x="135" y="518" text-anchor="middle" dominant-baseline="central">SQL Server</text>
  <text class="ts" x="135" y="534" text-anchor="middle" dominant-baseline="central">Staging tables + sproc</text>
</g>
<!-- External: Token file -->
<g class="c-gray">
  <rect x="270" y="500" width="150" height="52" rx="8" stroke-width="0.5"/>
  <text class="th" x="345" y="518" text-anchor="middle" dominant-baseline="central">schwab_tokens.json</text>
  <text class="ts" x="345" y="534" text-anchor="middle" dominant-baseline="central">FileTokenStore</text>
</g>

<!-- Arrows to external systems -->
<line x1="626" y1="426" x2="560" y2="500" class="arr" marker-end="url(#arrow)" stroke="#378ADD"/>
<line x1="181" y1="400" x2="150" y2="500" class="arr" marker-end="url(#arrow)" stroke="#378ADD"/>
<line x1="561" y1="226" x2="380" y2="500" class="arr" marker-end="url(#arrow)" stroke="#378ADD"/>

<!-- Legend -->
<g class="c-purple"><rect x="40" y="610" width="12" height="12" rx="2" stroke-width="0.5"/></g>
<text class="ts" x="58" y="621" dominant-baseline="central">core — shared infrastructure</text>
<g class="c-teal"><rect x="40" y="632" width="12" height="12" rx="2" stroke-width="0.5"/></g>
<text class="ts" x="58" y="643" dominant-baseline="central">schwab — API + OAuth layer</text>
<g class="c-coral"><rect x="40" y="654" width="12" height="12" rx="2" stroke-width="0.5"/></g>
<text class="ts" x="58" y="665" dominant-baseline="central">db — data access layer</text>
<g class="c-gray"><rect x="40" y="676" width="12" height="12" rx="2" stroke-width="0.5"/></g>
<text class="ts" x="58" y="687" dominant-baseline="central">cli / neutral — entry point &amp; prompts</text>
<g class="c-blue"><rect x="240" y="610" width="12" height="12" rx="2" stroke-width="0.5"/></g>
<text class="ts" x="258" y="621" dominant-baseline="central">external systems</text>
<line x1="240" y1="638" x2="268" y2="638" stroke="#888780" stroke-width="1.5" stroke-dasharray="4 2" marker-end="url(#arrow)" fill="none"/>
<text class="ts" x="274" y="643" dominant-baseline="central">uses / depends on</text>
<text class="ts" x="340" y="740" text-anchor="middle" dominant-baseline="central">schwab_loader — modular architecture</text>
</svg>
